<svg xmlns="http://www.w3.org/2000/svg" viewBox="0 0 423.8 488.8"><defs><style>.cls-1{fill:#0e0000;}</style></defs><g id="レイヤー_2" data-name="レイヤー 2"><g id="レイヤー_1-2" data-name="レイヤー 1"><path class="cls-1" d="M306.3,4.9l-38,58.7H148.6L97.6,1.8C94.5-2,88.9.7,88.9,6V214.2c0,2.7,2.9,3.8,5.6,3.8h93.9l-24.7,99.8H140.4c-19.2,0-35.5-14.8-36.2-34a35.3,35.3,0,0,1,35.3-36.5c7.6,0,13.8,2.2,20.3,6.5a7.3,7.3,0,0,0,9.8-1.5c1.4-2,1.9-7.5-1.5-10a49.4,49.4,0,0,0-78,41.7c.7,26.9,23.5,48,50.4,48h100c2.4,0,5.2-1.9,5.2-4.3V218h65c2.7,0,3.8-1.1,3.8-3.8V8.7C314.5,3,309.2.4,306.3,4.9ZM174.4,156.4a7,7,0,0,1-7,7h-.2a7,7,0,0,1-7-7v-43a7,7,0,0,1,7-7h.2a7,7,0,0,1,7,7Zm54.9,45h-.1a3.6,3.6,0,0,1-2.7-.8l-7.1-7a3.8,3.8,0,0,0-5.4.1l-7.1,6.8a3.4,3.4,0,0,1-2.7.9H204a3.6,3.6,0,0,1-2.7-6.2L214,182.7a3.8,3.8,0,0,1,5.4.1L232,195.1A3.7,3.7,0,0,1,229.3,201.4Zm44.9-45a7,7,0,0,1-7,7h-.3a7,7,0,0,1-7-7v-43a7,7,0,0,1,7-7h.3a7,7,0,0,1,7,7Z"/><path class="cls-1" d="M56.8,400.2a5.3,5.3,0,0,1,1.3-2.1,4.4,4.4,0,0,1,2.5-.4h3c1.5-.1,2.4.1,2.8.5a4.4,4.4,0,0,1,.9,2.6l10,61c.1.7.2,1.2.2,1.3v.5a1.8,1.8,0,0,1-.7,1.6,5.8,5.8,0,0,1-2.7.4H68a4.6,4.6,0,0,1-2.8-.4,5.2,5.2,0,0,1-.9-2.7l-5.5-37.9L41.6,464l-.2.4a.8.8,0,0,1-.2.4,3.3,3.3,0,0,1-.9,1.4,3,3,0,0,1-1.6.3,3.4,3.4,0,0,1-1.7-.3,18.8,18.8,0,0,1-1.2-2.3L19.3,424.6l-6.2,37.9-.2.9c-.2.9-.4,1.6-.9,1.9a4.4,4.4,0,0,1-2.6.3h-6a5.8,5.8,0,0,1-2.7-.4,1.8,1.8,0,0,1-.7-1.6v-.8c.1-.3.1-.7.2-1l11.2-61a4.4,4.4,0,0,1,.9-2.6,5,5,0,0,1,2.7-.5h3a4.4,4.4,0,0,1,2.5.4c.4.2.8.9,1.4,2.2l17,41Z"/><path class="cls-1" d="M114.9,460a18.9,18.9,0,0,1-6.2,5.3,17.6,17.6,0,0,1-7.8,1.7,21.5,21.5,0,0,1-8.5-1.7,21.1,21.1,0,0,1-11.2-12.2,25.4,25.4,0,0,1-1.6-9.2,24,24,0,0,1,1.6-9,20.7,20.7,0,0,1,4.4-7.3,19.7,19.7,0,0,1,15-6.6,17.5,17.5,0,0,1,7.8,1.6,21,21,0,0,1,6.5,5.4v-2.2c0-1.5.1-2.4.6-2.9s1.4-.6,2.9-.5h5.2a4.6,4.6,0,0,1,3,.5,4.3,4.3,0,0,1,.5,2.9v36.4a4.3,4.3,0,0,1-.5,2.9,4.6,4.6,0,0,1-3,.5h-5.2c-1.5.1-2.5-.1-2.9-.6s-.6-1.3-.6-2.8Zm-10.7-28a11.5,11.5,0,0,0-8.5,3.5,11.2,11.2,0,0,0-2.6,3.8,11.8,11.8,0,0,0-.9,4.6,11.9,11.9,0,0,0,.9,4.7,11.6,11.6,0,0,0,2.6,3.9,11.5,11.5,0,0,0,8.5,3.5,12.8,12.8,0,0,0,4.8-.9,10.8,10.8,0,0,0,3.7-2.6,11.6,11.6,0,0,0,2.6-3.9,12.7,12.7,0,0,0,0-9.4,11.8,11.8,0,0,0-2.6-3.7,11.5,11.5,0,0,0-8.5-3.5Z"/><path class="cls-1" d="M165.7,459.7a22.1,22.1,0,0,1-6.8,5.6A17.7,17.7,0,0,1,151,467a20.5,20.5,0,0,1-8.3-1.6,20,20,0,0,1-6.5-4.7,21.9,21.9,0,0,1-4.2-7.1,24.5,24.5,0,0,1-1.6-9.1,26.1,26.1,0,0,1,1.6-9.4,23.2,23.2,0,0,1,4.4-7.5,19.7,19.7,0,0,1,15.2-6.6,16.8,16.8,0,0,1,7.7,1.6,20.7,20.7,0,0,1,6.4,5.4v-2.2a4.3,4.3,0,0,1,.5-2.9,4,4,0,0,1,2.8-.5h5.3c1.5-.1,2.5.1,2.9.5a4.3,4.3,0,0,1,.5,2.9V464a51.5,51.5,0,0,1-.2,5.8,26,26,0,0,1-.8,4.5,19.4,19.4,0,0,1-1.5,3.6,17.2,17.2,0,0,1-2.4,3.3,20.2,20.2,0,0,1-7.8,5.7,28.2,28.2,0,0,1-10.3,1.9,26.2,26.2,0,0,1-12.7-3,20.7,20.7,0,0,1-8.5-8.6,9.1,9.1,0,0,1-1.4-4.6,1.6,1.6,0,0,1,.8-1.5,5.8,5.8,0,0,1,2.7-.4h6.2l2.3.2a1.9,1.9,0,0,1,1.1,1.1,12.4,12.4,0,0,0,2.1,3.7,5.7,5.7,0,0,0,2.4,1.7,14.3,14.3,0,0,0,5.2,1.1,11.2,11.2,0,0,0,4.4-.9,10.1,10.1,0,0,0,3.7-2.3q2.7-2.9,2.7-9ZM155.2,432a12.8,12.8,0,0,0-4.8.9,11.6,11.6,0,0,0-3.9,2.6,12.8,12.8,0,0,0-2.6,3.8,11.8,11.8,0,0,0-.9,4.6,11.9,11.9,0,0,0,.9,4.7,13.3,13.3,0,0,0,2.6,3.9,11.6,11.6,0,0,0,3.9,2.6,12.8,12.8,0,0,0,4.8.9,12.7,12.7,0,0,0,4.7-.9,12.2,12.2,0,0,0,3.8-2.6,11.6,11.6,0,0,0,2.6-3.9,12.1,12.1,0,0,0,1-4.8,12.3,12.3,0,0,0-1-4.6,11.8,11.8,0,0,0-2.6-3.7,12.2,12.2,0,0,0-3.8-2.6A12.7,12.7,0,0,0,155.2,432Z"/><path class="cls-1" d="M189.2,399a7.3,7.3,0,0,1,5.1,12.4,6.7,6.7,0,0,1-5.1,2.2,6.9,6.9,0,0,1-5.2-2.2,7.2,7.2,0,0,1-2.1-5.2,6.8,6.8,0,0,1,2.2-5.1A6.9,6.9,0,0,1,189.2,399Zm6,63.2a2.6,2.6,0,0,1-3.4,3.4h-5.3a4,4,0,0,1-2.8-.5c-.5-.5-.6-1.4-.6-2.9V425.8c0-1.5.1-2.4.6-2.9a4,4,0,0,1,2.8-.5h5.3a2.6,2.6,0,0,1,3.4,3.4Z"/><path class="cls-1" d="M235.1,430.4a8.5,8.5,0,0,1-.3,2.8,1.1,1.1,0,0,1-1,.8l-1.2-.3a15.4,15.4,0,0,0-3.6-1.4,17.9,17.9,0,0,0-3.4-.3,13,13,0,0,0-9.2,3.3,12.6,12.6,0,0,0,0,17.4,12.8,12.8,0,0,0,9,3.3,16.1,16.1,0,0,0,3.7-.4,12.3,12.3,0,0,0,3.4-1.1,3.3,3.3,0,0,1,1.3-.4,1.1,1.1,0,0,1,1,.8,7.9,7.9,0,0,1,.3,2.6v4.1a9.9,9.9,0,0,1-.1,2.1,2.1,2.1,0,0,1-.5.9l-1.8.8a28.6,28.6,0,0,1-5.6,1.4l-3,.2a26.2,26.2,0,0,1-9.4-1.7,25.8,25.8,0,0,1-7.6-4.8,23.1,23.1,0,0,1-5-7.3,22.6,22.6,0,0,1-1.8-9,23.2,23.2,0,0,1,1.8-9.2,22.1,22.1,0,0,1,5-7.3,24.2,24.2,0,0,1,7.6-4.9,24.7,24.7,0,0,1,9.5-1.8,26,26,0,0,1,6.1.7,12.3,12.3,0,0,1,4.2,1.7c.3.3.5.5.5.8a9.9,9.9,0,0,1,.1,2.1Z"/><path class="cls-1" d="M261.2,462.2a2.6,2.6,0,0,1-3.4,3.4h-6.2a4,4,0,0,1-2.8-.5c-.5-.5-.6-1.4-.6-2.9V402.5c0-1.5.1-2.5.6-2.9s1.4-.7,2.8-.6h16.1a36.9,36.9,0,0,1,10.5,1.2,17.8,17.8,0,0,1,7.1,3.9,20.3,20.3,0,0,1,5,7.1,22.6,22.6,0,0,1,1.8,9,24.8,24.8,0,0,1-1.4,8.2,21.3,21.3,0,0,1-4,6.7,20.3,20.3,0,0,1-7,4.4,29.7,29.7,0,0,1-10.1,1.4h-8.4Zm5.3-32.6c8.1,0,12.2-3.2,12.2-9.5a10.5,10.5,0,0,0-.9-4.4,7.3,7.3,0,0,0-2.5-3.2,8.8,8.8,0,0,0-3.8-1.6,29.7,29.7,0,0,0-5.8-.5h-4.5v19.2Z"/><path class="cls-1" d="M307.8,462.7c.1,1.2-.1,2.1-.5,2.4s-1.4.6-2.9.5h-5.2c-1.5.1-2.5-.1-2.9-.5s-.6-1.2-.5-2.4V403.5a3.2,3.2,0,0,1,.5-2.5c.4-.4,1.4-.5,2.9-.5h5.2c1.5,0,2.5.1,2.9.5a3.2,3.2,0,0,1,.5,2.5Z"/><path class="cls-1" d="M325.5,446.8c0,6.6,3,9.9,8.9,9.9s8.8-3.3,8.8-9.9v-21a2.6,2.6,0,0,1,3.4-3.4h5.3a4,4,0,0,1,2.8.5c.5.5.6,1.4.6,2.9v23q0,8.8-5.4,13.5c-3.6,3.1-8.8,4.7-15.5,4.7s-12-1.6-15.6-4.7-5.4-7.6-5.4-13.5v-23c0-1.5.1-2.4.6-2.9a4,4,0,0,1,2.8-.5h5.3a2.6,2.6,0,0,1,3.4,3.4Z"/><path class="cls-1" d="M384.5,430l-1.4,1.5a1.8,1.8,0,0,1-1.1.3l-.8-.2a16.5,16.5,0,0,0-2.7-1.3,3.8,3.8,0,0,0-1.4-.5h-1.8a5.3,5.3,0,0,0-3.4,1,3.1,3.1,0,0,0-1.4,2.7,2.8,2.8,0,0,0,1.4,2.3,19.9,19.9,0,0,0,5.5,2.4l5.3,2a20.2,20.2,0,0,1,3.2,1.8,11.2,11.2,0,0,1,4.8,9.6,14.5,14.5,0,0,1-1.3,6.3,15.1,15.1,0,0,1-3.8,4.9,19,19,0,0,1-5.8,3.2,23.8,23.8,0,0,1-14.3,0,22.8,22.8,0,0,1-6.4-3.3c-1.5-1.1-2.2-2.1-2.2-2.9a1.5,1.5,0,0,1,.2-.9,5.3,5.3,0,0,1,1.2-1.5l1.8-2.1a11.3,11.3,0,0,1,1.4-1.5,1.6,1.6,0,0,1,1.1-.3l.8.2,2.1,1.6a8.6,8.6,0,0,0,3.3,1.8,13.6,13.6,0,0,0,3.8.6,5.2,5.2,0,0,0,3.9-1.4,4.3,4.3,0,0,0,1.6-3.4,3.4,3.4,0,0,0-1.3-2.9c-.8-.7-2.6-1.5-5.4-2.5l-3.3-1.2-2.1-.9-1.5-.8-1.3-.9c-2.9-2-4.3-5-4.3-9a12.7,12.7,0,0,1,4.3-10c2.8-2.5,6.5-3.8,11.1-3.8a23.6,23.6,0,0,1,9,1.6,8.8,8.8,0,0,1,2.9,1.6,2.6,2.6,0,0,1,1.1,1.9,2.9,2.9,0,0,1-.2.9,12.7,12.7,0,0,1-1.1,1.5Z"/><path class="cls-1" d="M404,397.9a1.7,1.7,0,0,1,2.2-2.2h3.2a2.5,2.5,0,0,1,1.9.4,2.8,2.8,0,0,1,.3,1.8v10h10a2.2,2.2,0,0,1,1.8.3c.3.3.4.9.4,1.9v3.2c0,1-.1,1.6-.4,1.9a2.6,2.6,0,0,1-1.8.4h-10v9.9a2.6,2.6,0,0,1-.3,1.8,2.5,2.5,0,0,1-1.9.4h-3.2a2.2,2.2,0,0,1-1.8-.4,2.1,2.1,0,0,1-.4-1.8v-9.9h-9.9c-1,0-1.6-.1-1.9-.4s-.4-.9-.4-1.9v-3.2c0-1,.1-1.6.4-1.9s.9-.4,1.9-.3H404Z"/><path class="cls-1" d="M60.7,385.2H59.2V373.3H56v-1.4h7.9v1.4H60.7Z"/><path class="cls-1" d="M74,377.3v-5.4h1.5v13.3H74v-6.5H67.2v6.5H65.7V371.9h1.5v5.4Z"/><path class="cls-1" d="M80.6,373.3v4h5.2v1.3H80.6v5.3H86v1.3H79.1V371.9H86v1.4Z"/><path class="cls-1" d="M102,381.9l4.2-10.7,3.9,10.7,4-10h1.6l-5.6,14-3.9-10.6L102,385.9l-5.2-14h1.7Z"/><path class="cls-1" d="M119.6,385.2h-1.5V371.9h1.5Z"/><path class="cls-1" d="M131.7,383.9v1.3h-9.6l7.3-11.9h-6.3v-1.4h8.8l-7.3,12Z"/><path class="cls-1" d="M136.7,381.5l-1.6,3.7h-1.7l6.2-13.9,6,13.9h-1.7l-1.5-3.7Zm2.9-6.8-2.3,5.4h4.5Z"/><path class="cls-1" d="M155.3,385.2h-1.8l-4-5.8h-.4v5.8h-1.5V371.9h2.1a5.2,5.2,0,0,1,3.2.7,3.4,3.4,0,0,1,1.5,3,3.5,3.5,0,0,1-3.3,3.7Zm-5.3-7.1c1.9,0,3-.9,3-2.5a2.3,2.3,0,0,0-1-1.9,3.7,3.7,0,0,0-2-.4h-.9v4.8Z"/><path class="cls-1" d="M157.8,371.9h2.7a7.4,7.4,0,0,1,4.9,1.5,6.7,6.7,0,0,1,2.3,5.2,6.5,6.5,0,0,1-2.3,5.1,7.2,7.2,0,0,1-4.9,1.5h-2.7Zm2.8,12a5.3,5.3,0,0,0,3.8-1.3,4.9,4.9,0,0,0,1.8-4,5.4,5.4,0,0,0-1.8-4.1,5.8,5.8,0,0,0-3.8-1.2h-1.3v10.6Z"/><path class="cls-1" d="M176.5,374.5a2.4,2.4,0,0,0-2.3-1.4,2.1,2.1,0,0,0-2.2,2,1.9,1.9,0,0,0,.8,1.5l2.3,1.1c2.2.9,3,2,3,3.7a4.2,4.2,0,0,1-8.3.6l1.4-.4a3.7,3.7,0,0,0,.6,1.4,2.7,2.7,0,0,0,2.2,1.1,2.6,2.6,0,0,0,2.6-2.6,1.9,1.9,0,0,0-1.1-1.9,7.8,7.8,0,0,0-2.3-1.2c-1.9-.9-2.7-1.8-2.7-3.3a3.5,3.5,0,0,1,3.7-3.4,3.8,3.8,0,0,1,3.5,2.1Z"/><path class="cls-1" d="M203.7,378.6a6.9,6.9,0,0,1-12.1,4.5,6.7,6.7,0,0,1-1.7-4.6,6.9,6.9,0,0,1,13.8.1Zm-12.3-.1a5.3,5.3,0,0,0,1.7,4.1,5.6,5.6,0,0,0,3.7,1.5,5.5,5.5,0,0,0,5.4-5.5,5.4,5.4,0,1,0-10.8-.1Z"/><path class="cls-1" d="M208.1,373.3v4h4.4v1.3h-4.4v6.6h-1.5V371.9h6v1.4Z"/><path class="cls-1" d="M228.2,385.2h-1.5V373.3h-3.2v-1.4h8v1.4h-3.3Z"/><path class="cls-1" d="M235.1,373.3v4h5.3v1.3h-5.3v5.3h5.4v1.3h-6.9V371.9h6.9v1.4Z"/><path class="cls-1" d="M253.9,374.8a5.6,5.6,0,0,0-4.1-1.7,5.5,5.5,0,0,0,.1,11,5.8,5.8,0,0,0,4-1.8v1.9a6.8,6.8,0,0,1-4,1.3,6.9,6.9,0,0,1,0-13.8,6.8,6.8,0,0,1,4,1.3Z"/><path class="cls-1" d="M265.1,377.3v-5.4h1.5v13.3h-1.5v-6.5h-6.8v6.5h-1.5V371.9h1.5v5.4Z"/><path class="cls-1" d="M269.8,371.3l10.4,10.9V371.9h1.5v13.9L271.3,375v10.2h-1.5Z"/><path class="cls-1" d="M298.5,378.6a6.9,6.9,0,0,1-12.1,4.5,6.7,6.7,0,0,1-1.7-4.6,6.9,6.9,0,0,1,13.8.1Zm-12.3-.1a5.3,5.3,0,0,0,1.7,4.1,5.6,5.6,0,0,0,3.7,1.5,5.5,5.5,0,0,0,5.4-5.5,5.4,5.4,0,1,0-10.8-.1Z"/><path class="cls-1" d="M302.5,383.9h3.6v1.3H301V371.9h1.5Z"/><path class="cls-1" d="M321.5,378.6a7,7,0,0,1-7,6.9,7.1,7.1,0,0,1-5.2-2.4,6.7,6.7,0,0,1-1.7-4.6,7,7,0,0,1,13.9.1Zm-12.4-.1a5.7,5.7,0,0,0,1.7,4.1,5.8,5.8,0,0,0,3.7,1.5,5.5,5.5,0,0,0,5.5-5.5,5.5,5.5,0,0,0-5.5-5.5A5.4,5.4,0,0,0,309.1,378.5Z"/><path class="cls-1" d="M336.7,378.5v.4a6.6,6.6,0,0,1-.7,3.4,6.3,6.3,0,0,1-5.6,3.2,6.9,6.9,0,0,1,.1-13.8,7.1,7.1,0,0,1,4.1,1.3,11.9,11.9,0,0,1,1.6,1.6l-1.1,1c-1.4-1.8-2.7-2.5-4.5-2.5a5.5,5.5,0,0,0-.2,11,4.9,4.9,0,0,0,4.2-2.3,3.6,3.6,0,0,0,.5-1.9h-3.9v-1.4Z"/><path class="cls-1" d="M337.3,371.9h1.8l3.4,6,3.4-6h1.7l-4.4,7.6v5.7h-1.5v-5.7Z"/></g></g></svg>