<svg xmlns="http://www.w3.org/2000/svg" viewBox="0 0 541.2 140"><defs><style>.cls-1{fill:#0e0000;}</style></defs><g id="レイヤー_2" data-name="レイヤー 2"><g id="レイヤー_1-2" data-name="レイヤー 1"><path class="cls-1" d="M91.5,2l-16,24.8H25.1L3.7.7C2.4-.9,0,.3,0,2.5V90.2c0,1.1,1.2,1.6,2.3,1.6H41.9l-10.4,42H21.7A15.1,15.1,0,0,1,6.4,119.5a14.9,14.9,0,0,1,14.9-15.4,15.9,15.9,0,0,1,8.6,2.7,2.9,2.9,0,0,0,4.1-.6,3.3,3.3,0,0,0-.7-4.2A20.8,20.8,0,0,0,.5,119.6c.3,11.3,9.9,20.2,21.2,20.2H63.8A2.1,2.1,0,0,0,66,138V91.8H93.4A1.4,1.4,0,0,0,95,90.2V3.6C95,1.3,92.8.2,91.5,2ZM36,65.9a2.9,2.9,0,0,1-2.9,2.9h-.2A2.9,2.9,0,0,1,30,65.9V47.7a2.9,2.9,0,0,1,2.9-2.9h.2A2.9,2.9,0,0,1,36,47.7ZM59.1,84.8h0a1.6,1.6,0,0,1-1.2-.3l-3-3a1.5,1.5,0,0,0-2.2.1l-3,2.8a1.6,1.6,0,0,1-1.2.4h0a1.5,1.5,0,0,1-1.2-2.6l5.4-5.3a1.5,1.5,0,0,1,2.2.1l5.4,5.2A1.5,1.5,0,0,1,59.1,84.8ZM78,65.9a2.9,2.9,0,0,1-2.9,2.9h-.2A2.9,2.9,0,0,1,72,65.9V47.7a2.9,2.9,0,0,1,2.9-2.9h.2A2.9,2.9,0,0,1,78,47.7Z"/><path class="cls-1" d="M174.2,51.4a7.2,7.2,0,0,1,1.3-2.2,6.2,6.2,0,0,1,2.5-.3h3a4.6,4.6,0,0,1,2.8.4,5.2,5.2,0,0,1,.9,2.7l10,61,.2,1.3v.5a1.8,1.8,0,0,1-.7,1.5,5.6,5.6,0,0,1-2.7.5h-6.1c-1.5.1-2.4-.1-2.8-.5a4.4,4.4,0,0,1-.9-2.6l-5.5-37.9L159,115.2a.8.8,0,0,0-.2.4c-.1.1-.1.3-.2.4a3.3,3.3,0,0,1-.9,1.4,3,3,0,0,1-1.6.3,2.5,2.5,0,0,1-1.7-.4,10.5,10.5,0,0,1-1.2-2.2L136.7,75.8l-6.2,37.9-.2.9c-.2.9-.4,1.5-.9,1.8a4.2,4.2,0,0,1-2.6.4h-6a5,5,0,0,1-2.7-.5,1.6,1.6,0,0,1-.7-1.5V114c.1-.3.1-.7.2-1l11.2-61a4.4,4.4,0,0,1,.9-2.6,5,5,0,0,1,2.7-.5h3a6.5,6.5,0,0,1,2.5.3,6.5,6.5,0,0,1,1.4,2.3l17,41Z"/><path class="cls-1" d="M232.3,111.1a16.3,16.3,0,0,1-14.1,7.1,20.3,20.3,0,0,1-8.5-1.8,19.7,19.7,0,0,1-6.7-4.8,21.6,21.6,0,0,1-4.4-7.3,25.4,25.4,0,0,1-1.6-9.2,24.9,24.9,0,0,1,1.6-9.1,20.2,20.2,0,0,1,4.4-7.2,21.1,21.1,0,0,1,6.6-4.9,19.3,19.3,0,0,1,8.3-1.7,18,18,0,0,1,7.9,1.6,21,21,0,0,1,6.5,5.4V77c-.1-1.5.1-2.4.6-2.9s1.4-.6,2.9-.5H241c1.5-.1,2.5.1,2.9.5s.7,1.4.6,2.9v36.4c.1,1.5-.1,2.4-.6,2.9s-1.4.6-2.9.5h-5.2c-1.5.1-2.5-.1-2.9-.6s-.7-1.4-.6-2.8Zm-10.7-28a12.4,12.4,0,0,0-4.7,1,12.5,12.5,0,0,0-6.4,6.4,11.9,11.9,0,0,0-1,4.6,12.4,12.4,0,0,0,1,4.7,11.6,11.6,0,0,0,2.6,3.9,12.8,12.8,0,0,0,3.8,2.6,12.3,12.3,0,0,0,4.7.9,12.8,12.8,0,0,0,4.8-.9,12.3,12.3,0,0,0,3.7-2.6,13.3,13.3,0,0,0,2.6-3.9,12.8,12.8,0,0,0,.9-4.8,11.8,11.8,0,0,0-.9-4.6,13.7,13.7,0,0,0-2.6-3.7,12.2,12.2,0,0,0-3.8-2.6A12.8,12.8,0,0,0,221.6,83.1Z"/><path class="cls-1" d="M283,110.9a20.8,20.8,0,0,1-6.7,5.6,17.7,17.7,0,0,1-7.9,1.7,20.5,20.5,0,0,1-8.3-1.7,18.4,18.4,0,0,1-6.5-4.6,24.1,24.1,0,0,1-4.3-7.1,26.7,26.7,0,0,1-1.5-9.1,26.1,26.1,0,0,1,1.6-9.4,23.2,23.2,0,0,1,4.4-7.5,21.5,21.5,0,0,1,6.7-4.9,19.9,19.9,0,0,1,8.5-1.7,16.8,16.8,0,0,1,7.7,1.6,19.4,19.4,0,0,1,6.3,5.4V77a4.8,4.8,0,0,1,.6-2.9,4,4,0,0,1,2.8-.5h5.3a4.3,4.3,0,0,1,2.9.5c.4.4.6,1.4.5,2.9v38.2c0,2.2-.1,4.1-.2,5.8a41.2,41.2,0,0,1-.8,4.5,19.4,19.4,0,0,1-1.5,3.6,22.9,22.9,0,0,1-2.4,3.3,20.2,20.2,0,0,1-7.8,5.7,28.2,28.2,0,0,1-10.3,1.9,26.2,26.2,0,0,1-12.7-3,20.2,20.2,0,0,1-8.5-8.6,9.4,9.4,0,0,1-1.4-4.6,1.6,1.6,0,0,1,.7-1.5,6.3,6.3,0,0,1,2.8-.4h6.2l2.3.2c.4.1.7.5,1.1,1.1a12.4,12.4,0,0,0,2.1,3.7,5.7,5.7,0,0,0,2.4,1.7,14.3,14.3,0,0,0,5.2,1.1,11.2,11.2,0,0,0,4.4-.9,9.7,9.7,0,0,0,3.6-2.3q2.7-2.9,2.7-9ZM272.6,83.1a12.9,12.9,0,0,0-4.8,1,11.6,11.6,0,0,0-3.9,2.6,12.8,12.8,0,0,0-2.6,3.8,11.8,11.8,0,0,0-.9,4.6,12.3,12.3,0,0,0,.9,4.7,12,12,0,0,0,6.5,6.5,12.8,12.8,0,0,0,4.8.9,11.8,11.8,0,0,0,4.6-.9,13.3,13.3,0,0,0,3.9-2.6,11.6,11.6,0,0,0,2.6-3.9,12.8,12.8,0,0,0,.9-4.8,11.1,11.1,0,0,0-3.5-8.3,11.6,11.6,0,0,0-3.9-2.6A11.9,11.9,0,0,0,272.6,83.1Z"/><path class="cls-1" d="M306.6,50.2a7.3,7.3,0,0,1,5.1,12.4,7.1,7.1,0,0,1-10.3,0,7.2,7.2,0,0,1-2.1-5.2,6.8,6.8,0,0,1,2.2-5.1A6.9,6.9,0,0,1,306.6,50.2Zm6,63.2c.1,1.5-.1,2.4-.6,2.9s-1.3.6-2.8.5h-5.3c-1.5.1-2.4-.1-2.8-.5s-.7-1.4-.6-2.9V77c-.1-1.5.1-2.5.6-2.9s1.3-.6,2.8-.5h5.3c1.5-.1,2.4.1,2.8.5s.7,1.4.6,2.9Z"/><path class="cls-1" d="M352.5,81.6a8.5,8.5,0,0,1-.3,2.8,1,1,0,0,1-1.1.7l-1.2-.3a17.1,17.1,0,0,0-3.5-1.3,17.8,17.8,0,0,0-3.5-.4,13,13,0,0,0-9.1,3.4,11.5,11.5,0,0,0-3.5,8.7,11.1,11.1,0,0,0,3.5,8.6,12.4,12.4,0,0,0,8.9,3.4,15.5,15.5,0,0,0,3.7-.4,15.1,15.1,0,0,0,3.4-1.1,3.8,3.8,0,0,1,1.3-.4,1.1,1.1,0,0,1,1.1.8,7.9,7.9,0,0,1,.3,2.6v4.1a9.9,9.9,0,0,1-.1,2.1q0,.3-.6.9l-1.7.8a16,16,0,0,1-2.6.8,15.5,15.5,0,0,1-3.1.6l-2.9.2a24.2,24.2,0,0,1-9.4-1.8,23.7,23.7,0,0,1-7.6-4.7,23.1,23.1,0,0,1-5-7.3,22.6,22.6,0,0,1-1.8-9,23.2,23.2,0,0,1,1.8-9.2,22.1,22.1,0,0,1,5-7.3,24.2,24.2,0,0,1,7.6-4.9,24.7,24.7,0,0,1,9.5-1.8,25.2,25.2,0,0,1,6,.7,10.7,10.7,0,0,1,4.2,1.7c.4.3.6.5.6.8a9.9,9.9,0,0,1,.1,2.1Z"/><path class="cls-1" d="M378.6,113.4c.1,1.5-.1,2.4-.6,2.9s-1.3.6-2.8.5H369c-1.5.1-2.4-.1-2.8-.5s-.7-1.4-.6-2.9V53.7q-.2-2.2.6-3c.4-.4,1.3-.6,2.8-.5h16.1a41.6,41.6,0,0,1,10.5,1.1,19.4,19.4,0,0,1,7.1,4,20.3,20.3,0,0,1,5,7.1,22.5,22.5,0,0,1,1.7,9,24.7,24.7,0,0,1-1.3,8.2,19.8,19.8,0,0,1-4,6.6,19.2,19.2,0,0,1-7,4.5A30,30,0,0,1,387,92.1h-8.4Zm5.3-32.6c8.1,0,12.2-3.2,12.2-9.5a10.5,10.5,0,0,0-.9-4.4,7.5,7.5,0,0,0-2.5-3.2,8.8,8.8,0,0,0-3.8-1.6,23.5,23.5,0,0,0-5.8-.5h-4.5V80.8Z"/><path class="cls-1" d="M425.2,113.8a3.2,3.2,0,0,1-.5,2.5,4.3,4.3,0,0,1-2.9.5h-5.3a4,4,0,0,1-2.8-.5,3.6,3.6,0,0,1-.6-2.5V54.7a3.6,3.6,0,0,1,.6-2.5c.4-.4,1.4-.5,2.8-.5h5.3c1.5,0,2.4.1,2.9.5a3.2,3.2,0,0,1,.5,2.5Z"/><path class="cls-1" d="M442.9,98c0,6.6,3,9.9,8.9,9.9s8.8-3.3,8.8-9.9V77c-.1-1.5.1-2.5.5-2.9a4.3,4.3,0,0,1,2.9-.5h5.3a4,4,0,0,1,2.8.5c.4.4.6,1.4.6,2.9v23q0,8.9-5.4,13.5c-3.6,3.1-8.8,4.7-15.5,4.7s-12-1.6-15.6-4.7-5.4-7.6-5.4-13.5V77c-.1-1.5.1-2.5.6-2.9s1.3-.6,2.8-.5h5.3c1.5-.1,2.4.1,2.8.5s.7,1.4.6,2.9Z"/><path class="cls-1" d="M501.9,81.2l-1.4,1.5a1.8,1.8,0,0,1-1.1.2,1.2,1.2,0,0,1-.8-.2l-2.7-1.2a3.8,3.8,0,0,0-1.4-.5h-1.8a5.3,5.3,0,0,0-3.4,1,3,3,0,0,0-1.4,2.6,2.8,2.8,0,0,0,1.4,2.4,19.9,19.9,0,0,0,5.5,2.4l5.3,2a20.2,20.2,0,0,1,3.2,1.8,11.2,11.2,0,0,1,4.8,9.6,13.3,13.3,0,0,1-1.4,6.3,14.8,14.8,0,0,1-3.7,4.9,16.9,16.9,0,0,1-5.8,3.1,21.5,21.5,0,0,1-7.3,1.2,23.8,23.8,0,0,1-7-1.1,24.9,24.9,0,0,1-6.5-3.3c-1.4-1.1-2.1-2.1-2.1-2.9a1.5,1.5,0,0,1,.2-.9,6.5,6.5,0,0,1,1.1-1.5l1.8-2.1,1.5-1.5a1.5,1.5,0,0,1,1-.3l.9.2,2,1.6a12,12,0,0,0,3.4,1.8,13.1,13.1,0,0,0,3.8.6,5.6,5.6,0,0,0,3.9-1.4,4.3,4.3,0,0,0,1.6-3.4,3.4,3.4,0,0,0-1.3-2.9c-.8-.7-2.6-1.5-5.4-2.5l-3.3-1.3-2.1-.8-1.5-.8-1.4-.9c-2.8-2-4.3-5-4.3-9a13.1,13.1,0,0,1,4.3-10A16.5,16.5,0,0,1,491.7,72a23.6,23.6,0,0,1,9,1.6,8.8,8.8,0,0,1,2.9,1.6,2.7,2.7,0,0,1,1.1,1.9,2.9,2.9,0,0,1-.2.9l-1.1,1.5Z"/><path class="cls-1" d="M521.4,49.1a1.7,1.7,0,0,1,2.2-2.2h3.2a2.2,2.2,0,0,1,1.8.4,2.1,2.1,0,0,1,.4,1.8V59h9.9c1,0,1.6.1,1.9.4s.4.9.4,1.9v3.2c0,1-.1,1.6-.4,1.9s-.9.4-1.9.3H529v10a1.7,1.7,0,0,1-2.2,2.2h-3.2a2.1,2.1,0,0,1-1.8-.4,2.2,2.2,0,0,1-.4-1.8v-10h-10a2.2,2.2,0,0,1-1.8-.3c-.3-.3-.4-.9-.4-1.9V61.3c0-1,.1-1.6.4-1.9a2.6,2.6,0,0,1,1.8-.4h10Z"/><path class="cls-1" d="M168.6,37.2h-.8V24.6h-3.4v-.8h7.7v.8h-3.5Z"/><path class="cls-1" d="M183.2,29.5V23.8h.8V37.2h-.8V30.3h-8.1v6.9h-.9V23.8h.9v5.7Z"/><path class="cls-1" d="M188.9,24.6v4.9h5.4v.8h-5.4v6.1h5.5v.8H188V23.8h6.4v.8Z"/><path class="cls-1" d="M210.3,35.1l4.9-12,4.5,12,4.2-11.3h.9l-5.1,13.9-4.5-12.1-5,12.1-4.5-13.9h1Z"/><path class="cls-1" d="M228.6,37.2h-.9V23.8h.9Z"/><path class="cls-1" d="M241.1,36.4v.8h-9.4l8.2-12.6h-7.4v-.8h8.9l-8.2,12.6Z"/><path class="cls-1" d="M246.3,32.8l-1.8,4.4h-.9l5.6-13.8,5.5,13.8h-.9L252,32.8Zm2.9-7.1L246.6,32h5.1Z"/><path class="cls-1" d="M263.8,37.2h-1.1l-4.2-6.3h-.4v6.3h-.9V23.8h1.9a4.5,4.5,0,0,1,2.8.7,3.2,3.2,0,0,1,1.3,2.9,3.3,3.3,0,0,1-1.6,3,5.5,5.5,0,0,1-2.2.5Zm-4.5-7.1c2,0,3.1-1,3.1-2.8a2.7,2.7,0,0,0-1.2-2.3,4,4,0,0,0-2-.4h-1.1v5.5Z"/><path class="cls-1" d="M266.9,23.8h2.7a6.4,6.4,0,0,1,4.9,1.9,6.7,6.7,0,0,1,1.9,4.8,6.9,6.9,0,0,1-1.9,4.8,6.6,6.6,0,0,1-4.9,1.9h-2.7Zm2.7,12.6a5.4,5.4,0,0,0,4.1-1.6,5.7,5.7,0,0,0,1.8-4.3,5.7,5.7,0,0,0-5.9-5.9h-1.8V36.4Z"/><path class="cls-1" d="M285.7,26.1a2.7,2.7,0,0,0-2.6-1.6,2.5,2.5,0,0,0-2.5,2.5c0,1.1.6,1.6,2.4,2.5a15.7,15.7,0,0,1,2.6,1.4,2.8,2.8,0,0,1,1.4,2.6,4,4,0,0,1-4.1,3.9,4.1,4.1,0,0,1-4-2.9l.8-.3.7,1.2a3.3,3.3,0,0,0,2.5,1.2,3.1,3.1,0,0,0,3.2-3.1,2.3,2.3,0,0,0-1.3-2.1l-2.4-1.3c-2.1-1-2.7-1.7-2.7-3.1a3.3,3.3,0,0,1,3.4-3.4,3.7,3.7,0,0,1,3.3,1.9Z"/><path class="cls-1" d="M313,30.5a6.9,6.9,0,1,1-13.8-.1,6.9,6.9,0,0,1,13.8.1Zm-12.9-.1a5.7,5.7,0,0,0,1.9,4.5,5.8,5.8,0,0,0,4,1.7,6.1,6.1,0,0,0,6.1-6.1,6,6,0,0,0-12-.1Z"/><path class="cls-1" d="M317.1,24.6v4.9h4.4v.8h-4.4v6.9h-.8V23.8h5.4v.8Z"/><path class="cls-1" d="M337.1,37.2h-.8V24.6h-3.4v-.8h7.7v.8h-3.5Z"/><path class="cls-1" d="M344,24.6v4.9h5.4v.8H344v6.1h5.5v.8h-6.4V23.8h6.4v.8Z"/><path class="cls-1" d="M363.8,26.6a5.7,5.7,0,0,0-1.6-1.3,5.3,5.3,0,0,0-2.9-.8,6.1,6.1,0,0,0-6,6.1,5.7,5.7,0,0,0,2,4.4,6.4,6.4,0,0,0,4,1.6,6.2,6.2,0,0,0,3.3-1.1,4.1,4.1,0,0,0,1.2-.9v1.1a6.9,6.9,0,0,1-4.5,1.7,6.9,6.9,0,0,1,0-13.8,6.6,6.6,0,0,1,4.5,1.8Z"/><path class="cls-1" d="M376.1,29.5V23.8h.9V37.2h-.9V30.3H368v6.9h-.9V23.8h.9v5.7Z"/><path class="cls-1" d="M380.6,23.7l11.2,11.7V23.8h.8V37.5L381.4,25.8V37.2h-.8Z"/><path class="cls-1" d="M409.8,30.5a6.9,6.9,0,1,1-13.8-.1,6.9,6.9,0,0,1,13.8.1Zm-12.9-.1a5.7,5.7,0,0,0,1.9,4.5,5.8,5.8,0,0,0,4,1.7,6.1,6.1,0,0,0,6.1-6.1,6,6,0,0,0-12-.1Z"/><path class="cls-1" d="M413.5,36.4h3.4v.8h-4.2V23.8h.8Z"/><path class="cls-1" d="M432.5,30.5a6.9,6.9,0,0,1-6.9,6.9,6.9,6.9,0,1,1,6.9-6.9Zm-12.9-.1a6.1,6.1,0,0,0,6,6.2,6.1,6.1,0,0,0,6-6.1,6,6,0,0,0-12-.1Z"/><path class="cls-1" d="M448.4,30.8a6.8,6.8,0,0,1-.7,3.5,6.9,6.9,0,1,1-5.6-10.7,6.1,6.1,0,0,1,4.1,1.5,5.3,5.3,0,0,1,1.6,1.7l-.7.5a6,6,0,0,0-1.2-1.4,6.2,6.2,0,0,0-3.9-1.4,6.1,6.1,0,1,0,4.9,9.5,5,5,0,0,0,.6-2.4h-4.7v-.8Z"/><path class="cls-1" d="M449.5,23.8h1l3.8,6.7,3.9-6.7h1l-4.5,7.7v5.7h-.9V31.5Z"/></g></g></svg>