<svg viewBox="0 0 177.78 100" xmlns="http://www.w3.org/2000/svg"><g fill="#394149"><path d="m38.79 54.79h3v14.71h-3zm4.74 9.67a5.34 5.34 0 1 1 5.34 5.33 5.28 5.28 0 0 1 -5.34-5.33zm7.66 0a2.32 2.32 0 1 0 -2.32 2.38 2.26 2.26 0 0 0 2.32-2.38z"/><path d="m66.27 59.42v9.58c0 3.39-2.65 4.82-5.33 4.82a5.15 5.15 0 0 1 -4.77-2.44l2.58-1.49a2.3 2.3 0 0 0 2.25 1.27 2 2 0 0 0 2.32-2.16v-.93a3.56 3.56 0 0 1 -2.94 1.31 5.12 5.12 0 0 1 0-10.24 3.59 3.59 0 0 1 2.94 1.31v-1zm-2.95 4.84a2.44 2.44 0 1 0 -2.44 2.34 2.28 2.28 0 0 0 2.44-2.34zm4.68.2a5.34 5.34 0 1 1 5.34 5.33 5.28 5.28 0 0 1 -5.34-5.33zm7.66 0a2.32 2.32 0 1 0 -2.32 2.38 2.26 2.26 0 0 0 2.3-2.38zm4.41-7.74a1.82 1.82 0 1 1 1.82 1.82 1.83 1.83 0 0 1 -1.82-1.82zm.31 2.7h3v10.08h-3zm16.08 5.04a5.06 5.06 0 0 1 -4.81 5.33 3.83 3.83 0 0 1 -3-1.23v5h-3v-14.14h3v.95a3.83 3.83 0 0 1 3-1.23 5.06 5.06 0 0 1 4.81 5.32zm-3 0a2.4 2.4 0 1 0 -2.46 2.46 2.3 2.3 0 0 0 2.44-2.46zm12.34 2.02c0 2.32-2 3.31-4.2 3.31a4.42 4.42 0 0 1 -4.33-2.4l2.62-1.49a1.66 1.66 0 0 0 1.71 1.19c.73 0 1.09-.23 1.09-.63 0-1.11-5-.52-5-4 0-2.2 1.86-3.31 4-3.31a4.43 4.43 0 0 1 3.94 2.16l-2.63 1.38a1.49 1.49 0 0 0 -1.36-.89c-.52 0-.84.2-.84.57.04 1.15 5 .38 5 4.11zm11.04-7.06v10.08h-3v-.94a3.45 3.45 0 0 1 -2.88 1.23c-2 0-3.77-1.45-3.77-4.18v-6.19h3v5.75a1.66 1.66 0 0 0 1.81 1.83c1.1 0 1.87-.64 1.87-2.07v-5.51zm17.34 3.9v6.18h-3v-5.92c0-1-.49-1.66-1.45-1.66s-1.58.71-1.58 1.9v5.68h-3v-5.92c0-1-.48-1.66-1.45-1.66s-1.57.71-1.57 1.9v5.68h-3v-10.08h3v.93a3.1 3.1 0 0 1 2.7-1.21 3 3 0 0 1 2.64 1.33 3.32 3.32 0 0 1 2.92-1.33c2.28 0 3.79 1.66 3.79 4.18z"/><circle cx="136.74" cy="57.12" r="2.24"/><circle cx="72.74" cy="36.67" r="10.49"/><circle cx="96.19" cy="36.67" r="10.49"/><path d="m38.81 26.18h20.97v20.97h-20.97z"/></g></svg>